<svg id="Layer_1" data-name="Layer 1" xmlns="http://www.w3.org/2000/svg" xmlns:xlink="http://www.w3.org/1999/xlink" viewBox="0 0 841.89 595.28"><defs><style>.cls-1{fill:none;}.cls-2{clip-path:url(#clip-path);}.cls-3{fill:url(#linear-gradient);}.cls-4{fill:#231f20;}</style><clipPath id="clip-path"><path class="cls-1" d="M344.71,348.63H243.82l-4.3,0-6.21,0h-2.56a6.5,6.5,0,0,0-1.44.19,11.22,11.22,0,0,0,2.05,22.25,4.91,4.91,0,0,0,.55,0h5.3c8.7,0,16.62,8.6,20.38,16.45l7.58,15.83a39.5,39.5,0,0,0,73.11-.4c.11-.2.23-.4.34-.61,2.16-3.86,16.83-38.74,16.83-38.74a11.52,11.52,0,0,0-1.06-9.61,11.39,11.39,0,0,0-9.16-5.34l-.52,0M143.63,268.16a11.68,11.68,0,0,0,0,23.36h14.6a11.68,11.68,0,0,0,0-23.35h-14.6Zm232.54,0H313.58a1,1,0,0,0-.93.58l-10.42,23.94a1,1,0,0,1-1.89,0L298,288.45c-.36-.67-.73-1.34-1.12-2v0l0,0a35.37,35.37,0,0,0-8-9.36,37.82,37.82,0,0,0-22.85-8.84c-.51,0-1,0-1.52,0H193v0a11.21,11.21,0,0,0-1.76,22.24,5,5,0,0,0,1.76.27v0h10.46c9.31,0,15.36,8.34,19.38,16.73l.77,1.6,5.3,10.91c.32.75.94,1.94,1.53,3s1.16,2.18,1.81,3.22a17.37,17.37,0,0,0,1.36,2c5.62,7.24,15.71,8.74,25.43,8.74H366.88c6.89-15.59,14.31-33,21.66-50,1.21-2.8,2.2-5.17,2.16-7.27a11.22,11.22,0,0,0-11.21-11.51ZM142.78,187.7v0A11.21,11.21,0,0,0,141.27,210c.09.14.55.23,1.51.28v0h24.14c9.3,0,17.59,8.36,21.6,16.76l.67,1.52c1.33,3.08,2.86,6.75,4.52,10.59l.16.37c6.12,14.19,15.65,17,31.11,17h60l-19.21-43.57-1.22-2.77a36.82,36.82,0,0,0-16.39-17.74l-.45-.24-.51-.26a41.22,41.22,0,0,0-8.63-3.18,35.49,35.49,0,0,0-6.37-1Zm188.1,0s0,0,0,0a11.18,11.18,0,0,1,9.82,15.89c0,.11-.1.28-.2.5s-3.12,7.1-3.17,7.21L317.9,256.49h83.8c8.68-20,16.68-38.65,23.17-53.65,3.09-7.15-2.73-15.14-10.52-15.14Z"/></clipPath><linearGradient id="linear-gradient" x1="-0.32" y1="595.41" x2="0.55" y2="595.41" gradientTransform="translate(240.43 -201229.06) scale(338.49)" gradientUnits="userSpaceOnUse"><stop offset="0" stop-color="#a6418a"/><stop offset="0.57" stop-color="#ef3b3e"/><stop offset="1" stop-color="#f79532"/></linearGradient></defs><title>Vbank</title><g class="cls-2"><rect class="cls-3" x="131.96" y="187.7" width="296" height="239.93"/></g><path class="cls-4" d="M439,355.64c0,3.69-2.57,6.13-6.42,6.13h-5.12v7.53h-2V349.67h7.13c3.87,0,6.42,2.39,6.42,6m-2.09.08a4.24,4.24,0,0,0-4.59-4.38h-4.86v8.76h4.86a4.23,4.23,0,0,0,4.59-4.38"/><path class="cls-4" d="M440.9,362.3c0-4.38,2.89-7.3,7.18-7.3s7.14,2.92,7.14,7.3-2.86,7.27-7.14,7.27-7.18-2.92-7.18-7.27m12.3,0c0-3.4-2-5.62-5.12-5.62s-5.17,2.22-5.17,5.62,2.07,5.62,5.17,5.62,5.12-2.25,5.12-5.62"/><polygon class="cls-4" points="480.05 355.27 474.59 369.3 472.65 369.3 468.33 357.47 463.98 369.3 462.04 369.3 456.57 355.27 458.67 355.27 463.1 367.1 467.48 355.27 469.15 355.27 473.5 367.1 477.93 355.27 480.05 355.27"/><path class="cls-4" d="M494.67,363H483.48c.23,3.05,1.88,5,4.66,5a5.58,5.58,0,0,0,4.54-2.39l1.46.83a7,7,0,0,1-6,3.1c-4,0-6.71-2.92-6.71-7.3s2.66-7.26,6.66-7.26,6.61,2.83,6.61,7.1a8.34,8.34,0,0,1,0,.88m-11.19-1.35h9.23c-.16-3.13-1.91-5.1-4.62-5.1s-4.43,2-4.61,5.1"/><path class="cls-4" d="M505.47,355l-.16,1.76c-3.42,0-5.39,1.72-5.39,4.4v8.14H498v-14h1.86l0,2.36c1-1.75,2.89-2.63,5.57-2.63"/><path class="cls-4" d="M519.24,363H508c.24,3.05,1.89,5,4.67,5a5.58,5.58,0,0,0,4.54-2.39l1.46.83a7,7,0,0,1-6,3.1c-4,0-6.71-2.92-6.71-7.3s2.65-7.26,6.66-7.26,6.6,2.83,6.6,7.1c0,.24,0,.67,0,.88M508,361.64h9.23c-.16-3.13-1.91-5.1-4.61-5.1s-4.43,2-4.62,5.1"/><path class="cls-4" d="M535.9,348.61V369.3H534l0-3a5.8,5.8,0,0,1-5.6,3.29c-3.93,0-6.74-2.89-6.74-7.24s2.81-7.33,6.74-7.33a5.8,5.8,0,0,1,5.6,3.29v-9.68ZM534,362.3c0-3.37-2.07-5.62-5.15-5.62s-5.17,2.25-5.17,5.65,2.07,5.59,5.17,5.59,5.15-2.25,5.15-5.62"/><path class="cls-4" d="M561.5,362.33c0,4.35-2.79,7.24-6.71,7.24a5.79,5.79,0,0,1-5.6-3.29l-.05,3h-1.86V348.61h1.91v9.68a5.8,5.8,0,0,1,5.6-3.29c3.92,0,6.71,2.95,6.71,7.33m-2,0c0-3.4-2.07-5.65-5.17-5.65s-5.15,2.25-5.15,5.62,2.07,5.62,5.15,5.62,5.17-2.25,5.17-5.59"/><path class="cls-4" d="M564.15,375.09l.22-1.57a2.69,2.69,0,0,0,1.19.24c1.19,0,1.7-.8,2.25-2l1.25-2.65-6.29-13.85h2.1l5.2,11.75,5-11.75h2.09L569.7,372c-.88,2-1.75,3.36-3.85,3.36a4.26,4.26,0,0,1-1.7-.31"/><polygon class="cls-4" points="422.58 382.25 425.64 382.25 432.55 398.62 439.4 382.25 442.47 382.25 433.87 402.14 431.18 402.14 422.58 382.25"/><polygon class="cls-4" points="447.93 384.61 447.93 391.38 455.8 391.38 455.8 393.75 447.93 393.75 447.93 402.14 445.05 402.14 445.05 382.25 456.91 382.25 456.91 384.61 447.93 384.61"/><path class="cls-4" d="M477.36,392.22c0,5.94-3.87,9.92-9.7,9.92H460.4V382.25h7.26c5.83,0,9.7,4,9.7,10m-2.95,0c0-4.57-2.75-7.61-6.86-7.61h-4.27v15.16h4.27c4.11,0,6.86-3,6.86-7.55"/><polygon class="cls-4" points="507.47 402.14 506.64 387.06 499.76 402.14 498.12 402.14 491.26 387.11 490.43 402.14 487.55 402.14 488.82 382.11 491.91 382.11 498.95 397.51 505.97 382.11 509.06 382.11 510.32 402.14 507.47 402.14"/><path class="cls-4" d="M514,383.08a1.71,1.71,0,1,1,1.72,1.72,1.66,1.66,0,0,1-1.72-1.72m.35,4.7h2.74v14.36h-2.74Z"/><path class="cls-4" d="M520.3,395c0-4.46,3-7.45,7.52-7.45a7.59,7.59,0,0,1,4.79,1.62L531.05,391a4.78,4.78,0,0,0-3.2-1.13c-2.82,0-4.71,2-4.71,5.08S525,400,527.88,400a4.81,4.81,0,0,0,3.6-1.43l1.58,1.86a7.52,7.52,0,0,1-5.32,1.93A7,7,0,0,1,520.3,395"/><path class="cls-4" d="M543.9,387.51l-.19,2.53c-3.25,0-5.24,1.61-5.24,4.06v8h-2.75V387.78h2.64l0,2.15c1.08-1.58,3-2.42,5.49-2.42"/><path class="cls-4" d="M544.46,395a7.49,7.49,0,1,1,7.5,7.44c-4.49,0-7.5-3-7.5-7.44m12.13,0c0-3-1.86-5.08-4.63-5.08s-4.65,2-4.65,5.08S549.17,400,552,400s4.63-2,4.63-5.08"/><path class="cls-4" d="M567.8,380.9a6.84,6.84,0,0,1,3,.57l-.21,2.15a4.54,4.54,0,0,0-2-.35,2.26,2.26,0,0,0-2.47,2.31v2.2h4.35V390h-4.35v12.1h-2.75V390H561v-2.26h2.41v-2.63a4.07,4.07,0,0,1,4.39-4.25m4.78,2.18a1.71,1.71,0,1,1,1.72,1.72,1.67,1.67,0,0,1-1.72-1.72m.35,4.7h2.74v14.36h-2.74Z"/><path class="cls-4" d="M593.2,393.1v9h-2.74v-8.55a4,4,0,0,0-8,0v8.55h-2.74V387.78h2.63l.06,2.12a5.65,5.65,0,0,1,4.94-2.39c3.47,0,5.81,2.23,5.81,5.59"/><path class="cls-4" d="M608.39,393.1v9h-2.66l-.06-2.53a5.55,5.55,0,0,1-4.89,2.8c-2.87,0-4.84-1.72-4.84-4.31s2.4-4.46,6-4.46a18,18,0,0,1,3.71.41v-.65c0-2.28-1.48-3.71-3.9-3.71a5,5,0,0,0-3.68,1.4l-1.21-1.64a7.91,7.91,0,0,1,5.56-1.94c3.57,0,6,2.23,6,5.59m-2.74,2.83a16.72,16.72,0,0,0-3.36-.38c-2.1,0-3.47,1-3.47,2.47s1,2.4,2.74,2.4a4.26,4.26,0,0,0,4.09-4.49"/><path class="cls-4" d="M625.73,393.1v9H623v-8.55a3.63,3.63,0,0,0-4-3.71c-2.4,0-4,1.48-4,3.71v8.55h-2.74V387.78h2.63l.05,2.12a5.68,5.68,0,0,1,4.95-2.39c3.47,0,5.81,2.23,5.81,5.59"/><path class="cls-4" d="M628.74,395c0-4.46,3-7.45,7.52-7.45a7.57,7.57,0,0,1,4.79,1.62L639.49,391a4.76,4.76,0,0,0-3.2-1.13c-2.82,0-4.7,2-4.7,5.08s1.88,5.08,4.73,5.08a4.79,4.79,0,0,0,3.6-1.43l1.59,1.86a7.56,7.56,0,0,1-5.33,1.93,7,7,0,0,1-7.44-7.44"/><path class="cls-4" d="M656.72,396H645.78c.27,2.61,1.64,4.28,4.14,4.28a5.07,5.07,0,0,0,4.11-2.1l2.1,1.13a7.24,7.24,0,0,1-6.18,3.15c-4.22,0-7.07-3-7.07-7.4s2.77-7.5,7-7.5,6.94,2.91,6.94,7.26a7.58,7.58,0,0,1-.06,1.18m-10.94-1.88H654c-.24-2.74-1.74-4.38-4.11-4.38s-3.82,1.67-4.06,4.38"/><path class="cls-4" d="M682.2,396.49c0,3.39-2.66,5.65-6.66,5.65h-8.23v-19.9h7.91c3.6,0,6,2.05,6,5.14a4.68,4.68,0,0,1-3,4.3,4.93,4.93,0,0,1,4,4.81m-12-5.75h4.38c2.21,0,3.68-1.24,3.68-3.06s-1.5-3.07-3.7-3.07h-4.36Zm9,5.7c0-2-1.56-3.34-3.87-3.34h-5.16v6.67h5.13c2.34,0,3.9-1.34,3.9-3.33"/><path class="cls-4" d="M696.78,393.1v9h-2.66l-.06-2.53a5.55,5.55,0,0,1-4.89,2.8c-2.88,0-4.84-1.72-4.84-4.31s2.39-4.46,6-4.46a18,18,0,0,1,3.71.41v-.65c0-2.28-1.48-3.71-3.9-3.71a5,5,0,0,0-3.69,1.4l-1.21-1.64a8,8,0,0,1,5.57-1.94c3.57,0,6,2.23,6,5.59M694,395.93a16.72,16.72,0,0,0-3.36-.38c-2.1,0-3.47,1-3.47,2.47s1,2.4,2.74,2.4a4.26,4.26,0,0,0,4.09-4.49"/><path class="cls-4" d="M714.12,393.1v9h-2.75v-8.55a3.63,3.63,0,0,0-4-3.71c-2.4,0-4,1.48-4,3.71v8.55h-2.75V387.78h2.64l.05,2.12a5.66,5.66,0,0,1,4.95-2.39c3.47,0,5.81,2.23,5.81,5.59"/><polygon class="cls-4" points="722.88 395.74 720.76 395.74 720.76 402.14 718.01 402.14 718.01 381.17 720.76 381.17 720.76 393.45 722.91 393.45 728.01 387.78 731.48 387.78 725.14 394.58 731.83 402.14 728.34 402.14 722.88 395.74"/><rect class="cls-1" width="841.89" height="595.28"/></svg>